<?xml version="1.0" standalone="no"?>
<!DOCTYPE svg PUBLIC "-//W3C//DTD SVG 20010904//EN"
 "http://www.w3.org/TR/2001/REC-SVG-20010904/DTD/svg10.dtd">
<svg version="1.0" xmlns="http://www.w3.org/2000/svg"
 width="500.000000pt" height="500.000000pt" viewBox="0 0 500.000000 500.000000"
 preserveAspectRatio="xMidYMid meet">
<metadata>
Created by potrace 1.11, written by Peter Selinger 2001-2013
</metadata>
<g transform="translate(0.000000,500.000000) scale(0.100000,-0.100000)"
fill="#000000" stroke="none">
<path d="M2269 4786 c-2 -2 -34 -6 -71 -10 -36 -3 -72 -8 -80 -11 -7 -2 -24
-6 -38 -9 -71 -12 -180 -50 -262 -90 -110 -54 -114 -56 -198 -122 -169 -132
-202 -154 -266 -174 -114 -35 -204 -20 -291 46 l-33 25 0 -1475 0 -1475 26
-73 c26 -74 111 -248 143 -297 10 -14 40 -60 66 -101 27 -41 52 -77 55 -80 4
-3 13 -15 21 -27 59 -86 232 -264 329 -340 278 -215 655 -377 856 -367 198 9
526 148 764 324 111 82 107 78 204 175 174 174 304 357 411 580 94 194 86 61
83 1451 -3 1140 -5 1233 -21 1289 -62 211 -181 316 -361 321 -68 1 -123 -5
-176 -21 -9 -3 -49 28 -100 78 -81 78 -235 189 -328 236 -118 60 -306 122
-412 136 -50 7 -316 15 -321 11z m-448 -1194 c95 -43 245 -91 334 -108 190
-34 441 -43 590 -19 139 22 148 24 239 50 147 43 297 111 359 163 21 19 -4 41
303 -268 l244 -244 0 -447 0 -446 -67 -51 c-166 -123 -329 -331 -404 -512 -12
-30 -24 -57 -26 -59 -2 -3 -22 13 -46 35 -151 144 -350 262 -488 290 -105 22
-226 -9 -305 -77 l-46 -40 -31 31 c-48 47 -145 90 -214 94 -151 8 -401 -116
-581 -288 -35 -34 -50 -42 -59 -34 -7 6 -13 15 -13 20 0 34 -118 232 -207 348
-39 50 -172 172 -226 206 l-46 29 -1 452 0 452 260 260 261 260 53 -34 c30
-19 82 -47 117 -63z"/>
<path d="M1815 2893 c-61 -33 -90 -87 -81 -149 7 -55 22 -80 66 -107 79 -49
171 -23 214 60 22 43 20 78 -5 131 -35 71 -126 102 -194 65z"/>
<path d="M3090 2902 c-56 -26 -100 -88 -100 -140 0 -42 32 -104 64 -125 71
-47 178 -22 215 51 36 70 18 148 -46 195 -25 20 -108 31 -133 19z"/>
</g>
</svg>
