<?xml version="1.0" encoding="UTF-8" standalone="no"?>
<svg width="297px" height="459px" viewBox="0 0 297 459" version="1.1" xmlns="http://www.w3.org/2000/svg" xmlns:xlink="http://www.w3.org/1999/xlink">
    <!-- Generator: Sketch 3.6.1 (26313) - http://www.bohemiancoding.com/sketch -->
    <title>logo</title>
    <desc>Created with Sketch.</desc>
    <defs></defs>
    <g id="NUT-PLAYGROUND" stroke="none" stroke-width="1" fill="none" fill-rule="evenodd">
        <g id="color" transform="translate(-363.000000, -284.000000)" fill="#000000">
            <path d="M650,536.122584 L650,446.246608 L597.930325,394.103277 C597.930325,394.103277 597.737367,394.252872 597.354891,394.528454 L596.930325,394.103277 C596.930325,394.103277 592.478531,397.81815 583.86087,402.385405 C569.710163,409.333372 545.225076,418.129977 511.956246,418.129977 C456.973422,418.129977 425.982168,394.103277 425.982168,394.103277 C425.982183,394.103289 425.982168,394.103277 425.982168,394.103277 L374,446.081897 L374,536.197451 C410.433487,558.486916 423.762215,598.629341 423.762215,598.629341 C447.818388,573.849181 473,563.78841 486.047936,564.396768 C495.086205,564.818176 503.796893,568.304022 511.938714,576.935583 C520.080534,568.304022 528.791223,564.818176 537.829492,564.396768 C550.877428,563.78841 576.059039,573.849181 600.115213,598.629341 C600.115213,598.629341 613.473831,558.396896 650,536.122584 L650,536.122584 Z M659.877428,561 L660,561 L660,439 L659.912513,439 L659.912513,375.089926 C655.16326,314.237282 607.135189,329.247729 602.329765,330.906382 C602.113246,330.965755 601.999995,331 601.999995,331 C601.930329,330.951234 601.860632,330.902556 601.790905,330.853965 C585.772196,310.848368 549.877269,286.992188 511.205434,284.530745 C465.000003,281 437.016272,297.975713 425.999999,306.000001 C411.337458,316.680241 403.999999,328.244665 383.757346,327.959503 C374,328.244665 363.999973,319.035413 363.999973,319.035413 L363.920863,453.553888 L364,453.543704 L364,547 L364,613.536046 C364,613.536046 373,649 407.939776,687.29551 C442.879552,725.59102 493.011249,742.28657 511.461108,742.784213 C511.461108,742.994385 511.629253,743.051504 511.938714,742.953489 C512.248174,743.051504 512.41632,742.994385 512.41632,742.784213 C530.866179,742.28657 580.997876,725.59102 615.937652,687.29551 C650.877428,649 659.877428,613.536046 659.877428,613.536046 L659.877428,561 L659.877428,561 Z M449,502 C457.284271,502 464,495.284271 464,487 C464,478.715729 457.284271,472 449,472 C440.715729,472 434,478.715729 434,487 C434,495.284271 440.715729,502 449,502 L449,502 Z M575,502 C583.284271,502 590,495.284271 590,487 C590,478.715729 583.284271,472 575,472 C566.715729,472 560,478.715729 560,487 C560,495.284271 566.715729,502 575,502 L575,502 Z" id="logo"></path>
        </g>
    </g>
</svg>